<?xml version="1.0" encoding="UTF-8"?>
<svg width="16px" height="16px" viewBox="0 0 16 16" version="1.1" xmlns="http://www.w3.org/2000/svg" xmlns:xlink="http://www.w3.org/1999/xlink">
    <!-- Generator: Sketch 62 (91390) - https://sketch.com -->
    <title>shire</title>
    <desc>Created with Sketch.</desc>
    <g id="Page-1" stroke="none" stroke-width="1" fill="none" fill-rule="evenodd">
        <g id="shire" fill="#60733a" fill-rule="nonzero">
            <path d="M8,0.0205479452 C3.59589041,0.0205479452 0.0205479452,3.59589041 0.0205479452,8 C0.0205479452,12.4041096 3.59589041,15.9794521 8,15.9794521 C11.5308219,15.9794521 14.5273973,13.6815068 15.5787671,10.5 L14.9280822,10.5 C13.9041096,13.3356164 11.1917808,15.3630137 8,15.3630137 C3.93150685,15.3630137 0.636986301,12.0684932 0.636986301,8 C0.636986301,3.93150685 3.93150685,0.636986301 8,0.636986301 C11.1917808,0.636986301 13.9041096,2.66438356 14.9280822,5.5 L15.5787671,5.5 C14.5273973,2.31917808 11.5308219,0.0205479452 8,0.0205479452 Z M7.69178082,1.74041096 C7.14383562,1.76678082 6.61643836,1.8630137 6.11643836,2.02020548 L6.11643836,11.5273973 L7.69178082,11.5273973 L7.69178082,1.74041096 Z M8.30821918,1.74041096 L8.30821918,6.59589041 L9.88356164,6.59589041 L9.88356164,2.02020548 C9.38356164,1.8630137 8.85616438,1.76678082 8.30821918,1.74041096 Z M5.5,2.25034247 C4.92465753,2.50034247 4.39383562,2.83561644 3.92465753,3.23630137 L3.92465753,3.30821918 L5.5,3.30821918 L5.5,2.25034247 Z M10.5,2.25034247 L10.5,9.88356164 L12.0753425,9.88356164 L12.0753425,3.23630137 C11.6061644,2.83561644 11.0753425,2.50034247 10.5,2.25034247 Z M3.30821918,3.84246575 C2.32773973,4.94863014 1.73287671,6.40410959 1.73287671,8 C1.73287671,9.59589041 2.32773973,11.0513699 3.30821918,12.1575342 L3.30821918,9.10958904 C2.9760274,8.85273973 2.76027397,8.44863014 2.76027397,8 C2.76027397,7.55136986 2.9760274,7.14726027 3.30821918,6.89041096 L3.30821918,3.84246575 Z M12.6917808,3.84246575 L12.6917808,12.1575342 C13.1267123,11.6678082 13.4828767,11.109589 13.75,10.5 L13.3082192,10.5 L13.3082192,5.5 L13.75,5.5 C13.4828767,4.89041096 13.1267123,4.33219178 12.6917808,3.84246575 Z M3.92465753,3.92465753 L3.92465753,6.61643836 C4.00342466,6.60273973 4.08219178,6.59589041 4.16438356,6.59589041 C4.78424658,6.59589041 5.31506849,7.00684932 5.5,7.56849315 L5.5,3.92465753 L3.92465753,3.92465753 Z M14.3561644,6.07123288 L14.3561644,7.69315068 L15.9780822,7.69315068 L15.9780822,6.07123288 L14.3561644,6.07123288 Z M4.16438356,7.21232877 C3.7260274,7.21232877 3.37671233,7.56164384 3.37671233,8 C3.37671233,8.43835616 3.7260274,8.78767123 4.16438356,8.78767123 C4.60273973,8.78767123 4.95205479,8.43835616 4.95205479,8 C4.95205479,7.56164384 4.60273973,7.21232877 4.16438356,7.21232877 Z M8.30821918,7.21232877 L8.30821918,14.260274 C8.85616438,14.2328767 9.38356164,14.1369863 9.88356164,13.9794521 L9.88356164,7.21232877 L8.30821918,7.21232877 Z M14.3561644,8.35068493 L14.3561644,9.97260274 L15.9780822,9.97260274 L15.9780822,8.35068493 L14.3561644,8.35068493 Z M5.5,8.43150685 C5.31506849,8.99315068 4.78424658,9.40410959 4.16438356,9.40410959 C4.08219178,9.40410959 4.00342466,9.39726027 3.92465753,9.38356164 L3.92465753,12.7636986 C4.39383562,13.1643836 4.92465753,13.5 5.5,13.75 L5.5,8.43150685 Z M10.5,10.5 L10.5,13.75 C11.0753425,13.5 11.6061644,13.1643836 12.0753425,12.7636986 L12.0753425,10.5 L10.5,10.5 Z M6.11643836,12.1438356 L6.11643836,13.9794521 C6.61643836,14.1369863 7.14383562,14.2328767 7.69178082,14.260274 L7.69178082,12.1438356 L6.11643836,12.1438356 Z" id="Shape"></path>
        </g>
    </g>
</svg>