<?xml version="1.0" encoding="UTF-8"?>
<svg width="17px" height="17px" viewBox="0 0 17 17" version="1.1" xmlns="http://www.w3.org/2000/svg" xmlns:xlink="http://www.w3.org/1999/xlink">
    <!-- Generator: Sketch 62 (91390) - https://sketch.com -->
    <title>arrow-fat-lines-right-thin-svgrepo-com</title>
    <desc>Created with Sketch.</desc>
    <g id="Page-1" stroke="none" stroke-width="1" fill="none" fill-rule="evenodd">
        <g id="arrow-fat-lines-right-thin-svgrepo-com" transform="translate(0.500000, 0.500000)" fill="#000000" fill-rule="nonzero">
            <path d="M15.9062888,7.7737496 L8.2262888,0.0937496 C8.13477387,0.00222283714 7.99713514,-0.02516317 7.87755508,0.0243619811 C7.75797503,0.0738871323 7.6800037,0.190569979 7.68,0.32 L7.68,3.84 L5.44,3.84 C5.26327254,3.84000884 5.12,3.98327254 5.12,4.16 L5.12,11.84 C5.12,12.0167275 5.26327254,12.1599912 5.44,12.16 L7.68,12.16 L7.68,15.68 C7.67999699,15.8094333 7.75796787,15.9261219 7.87755101,15.9756481 C7.99713414,16.0251744 8.13477653,15.9977836 8.2262888,15.9062496 L15.9062888,8.2262496 C15.9662968,8.16624585 16.0000093,8.08486074 16.0000093,7.99999978 C16.0000093,7.91513846 15.9662968,7.83375335 15.9062888,7.7737496 Z M8.32,14.9074216 L8.32,11.84 C8.31999116,11.6632725 8.17672746,11.5200088 8,11.52 L5.76,11.52 L5.76,4.48 L8,4.48 C8.17672746,4.47999116 8.31999116,4.33672746 8.32,4.16 L8.32,1.0925784 L15.2274608,8 L8.32,14.9074216 Z M0.64,4.16 L0.64,11.84 C0.64,12.0167311 0.49673112,12.16 0.32,12.16 C0.14326888,12.16 0,12.0167311 0,11.84 L0,4.16 C0,3.98326888 0.14326888,3.84 0.32,3.84 C0.49673112,3.84 0.64,3.98326888 0.64,4.16 Z M3.2,4.16 L3.2,11.84 C3.2,12.0167311 3.05673112,12.16 2.88,12.16 C2.70326888,12.16 2.56,12.0167311 2.56,11.84 L2.56,4.16 C2.56,3.98326888 2.70326888,3.84 2.88,3.84 C3.05673112,3.84 3.2,3.98326888 3.2,4.16 Z" id="Shape"></path>
        </g>
    </g>
</svg>