<?xml version="1.0" encoding="UTF-8"?>
<svg width="18px" height="18px" viewBox="0 0 18 18" version="1.1" xmlns="http://www.w3.org/2000/svg" xmlns:xlink="http://www.w3.org/1999/xlink">
    <!-- Generator: Sketch 62 (91390) - https://sketch.com -->
    <title>FP</title>
    <desc>Created with Sketch.</desc>
    <g id="Page-1" stroke="none" stroke-width="1" fill="none" fill-rule="evenodd">
        <g id="functional-programming-svgrepo-com" transform="translate(0.958904, 0.958904)" fill-rule="nonzero">
            <g id="container" stroke="#011C32">
                <rect id="mask" x="0" y="0" width="15.981149" height="15.981149" rx="4"></rect>
            </g>
            <g id="data-mining" transform="translate(2.475953, 2.250866)">
                <ellipse id="Oval" fill="#DA4167" cx="9.53756804" cy="0.572254082" rx="1.52601089" ry="1"></ellipse>
                <path d="M3.8150272,5.91329217 L3.43352449,5.91329217 L3.43352449,5.72254082 C3.43352449,5.40703807 3.17677316,5.15028673 2.86127041,5.15028673 L2.28901632,5.15028673 C1.76311483,5.15028673 1.33525952,4.72243144 1.33525952,4.19652994 L1.33525952,3.8150272 L1.71676225,3.8150272 L1.71676225,4.19652994 C1.71676225,4.51203268 1.97351358,4.76878402 2.28901632,4.76878402 L2.86127041,4.76878402 C3.38717191,4.76878402 3.8150272,5.19663931 3.8150272,5.72254082 L3.8150272,5.91329217 Z" id="Shape" fill="#68607C"></path>
                <path d="M7.63005443,5.91329217 L7.2485517,5.91329217 L7.2485517,5.72254082 C7.2485517,5.19663931 7.67640701,4.76878402 8.20230852,4.76878402 L8.77456258,4.76878402 C9.09006535,4.76878402 9.34681667,4.51203268 9.34681667,4.19652994 L9.34681667,3.8150272 L9.7283194,3.8150272 L9.7283194,4.19652994 C9.7283194,4.72243144 9.30046409,5.15028673 8.77456258,5.15028673 L8.20230852,5.15028673 C7.88680577,5.15028673 7.63005443,5.40703807 7.63005443,5.72254082 L7.63005443,5.91329217 Z" id="Shape" fill="#68607C"></path>
                <polygon id="Shape" fill="#68607C" points="5.34103811 3.8150272 5.72254082 3.8150272 5.72254082 5.91329217 5.34103811 5.91329217"></polygon>
                <path d="M11.0635789,2.4797677 L11.0635789,3.43352449 C11.0635789,3.75017174 10.3806891,4.00577858 9.53756804,4.00577858 C8.69444701,4.00577858 8.01155714,3.75017174 8.01155714,3.43352449 L8.01155714,2.4797677 C8.01155714,2.79641494 8.69444701,3.05202176 9.53756804,3.05202176 C10.3806891,3.05202176 11.0635789,2.79641494 11.0635789,2.4797677 Z" id="Shape" fill="#FFE5CA"></path>
                <path d="M11.0635789,0.572254082 L11.0635789,1.52601089 C11.0635789,1.84265814 10.3806891,2.09826497 9.53756804,2.09826497 C8.69444701,2.09826497 8.01155714,1.84265814 8.01155714,1.52601089 L8.01155714,0.572254082 C8.01155714,0.88890134 8.69444701,1.14450816 9.53756804,1.14450816 C10.3806891,1.14450816 11.0635789,0.88890134 11.0635789,0.572254082 Z" id="Shape" fill="#FFE5CA"></path>
                <path d="M11.0635789,1.52601089 L11.0635789,2.4797677 C11.0635789,2.79641494 10.3806891,3.05202176 9.53756804,3.05202176 C8.69444701,3.05202176 8.01155714,2.79641494 8.01155714,2.4797677 L8.01155714,1.52601089 C8.01155714,1.84265814 8.69444701,2.09826497 9.53756804,2.09826497 C10.3806891,2.09826497 11.0635789,1.84265814 11.0635789,1.52601089 Z" id="Shape" fill="#FFE5CA"></path>
                <path d="M7.05780034,1.52601089 L7.05780034,2.4797677 C7.05780034,2.79641494 6.37491047,3.05202176 5.53178946,3.05202176 C4.68866845,3.05202176 4.00577858,2.79641494 4.00577858,2.4797677 L4.00577858,1.52601089 C4.00577858,1.84265814 4.68866845,2.09826497 5.53178946,2.09826497 C6.37491047,2.09826497 7.05780034,1.84265814 7.05780034,1.52601089 Z" id="Shape" fill="#FFE5CA"></path>
                <path d="M7.05780034,2.4797677 L7.05780034,3.43352449 C7.05780034,3.75017174 6.37491047,4.00577858 5.53178946,4.00577858 C4.68866845,4.00577858 4.00577858,3.75017174 4.00577858,3.43352449 L4.00577858,2.4797677 C4.00577858,2.79641494 4.68866845,3.05202176 5.53178946,3.05202176 C6.37491047,3.05202176 7.05780034,2.79641494 7.05780034,2.4797677 Z" id="Shape" fill="#FFE5CA"></path>
                <path d="M7.05780034,0.572254082 L7.05780034,1.52601089 C7.05780034,1.84265814 6.37491047,2.09826497 5.53178946,2.09826497 C4.68866845,2.09826497 4.00577858,1.84265814 4.00577858,1.52601089 L4.00577858,0.572254082 C4.00577858,0.88890134 4.68866845,1.14450816 5.53178946,1.14450816 C6.37491047,1.14450816 7.05780034,0.88890134 7.05780034,0.572254082 Z" id="Shape" fill="#FFE5CA"></path>
                <ellipse id="Oval" fill="#DA4167" cx="5.53178946" cy="0.572254082" rx="1.52601089" ry="1"></ellipse>
                <path d="M3.05202176,2.4797677 L3.05202176,3.43352449 C3.05202176,3.75017174 2.36913189,4.00577858 1.52601089,4.00577858 C0.682889872,4.00577858 0,3.75017174 0,3.43352449 L0,2.4797677 C0,2.79641494 0.682889872,3.05202176 1.52601089,3.05202176 C2.36913189,3.05202176 3.05202176,2.79641494 3.05202176,2.4797677 Z" id="Shape" fill="#FFE5CA"></path>
                <ellipse id="Oval" fill="#DA4167" cx="1.52601089" cy="0.572254082" rx="1.52601089" ry="1"></ellipse>
                <path d="M3.05202176,0.572254082 L3.05202176,1.52601089 C3.05202176,1.84265814 2.36913189,2.09826497 1.52601089,2.09826497 C0.682889872,2.09826497 0,1.84265814 0,1.52601089 L0,0.572254082 C0,0.88890134 0.682889872,1.14450816 1.52601089,1.14450816 C2.36913189,1.14450816 3.05202176,0.88890134 3.05202176,0.572254082 Z" id="Shape" fill="#FFE5CA"></path>
                <path d="M3.05202176,1.52601089 L3.05202176,2.4797677 C3.05202176,2.79641494 2.36913189,3.05202176 1.52601089,3.05202176 C0.682889872,3.05202176 0,2.79641494 0,2.4797677 L0,1.52601089 C0,1.84265814 0.682889872,2.09826497 1.52601089,2.09826497 C2.36913189,2.09826497 3.05202176,1.84265814 3.05202176,1.52601089 Z" id="Shape" fill="#FFE5CA"></path>
                <polygon id="Shape" fill="#F69489" points="9.15606531 6.86704899 6.10404355 9.34681667 6.10404355 10.6820762 4.95953538 11.4450816 4.95953538 9.34681667 1.90751361 6.86704899 1.90751361 5.72254082 9.15606531 5.72254082"></polygon>
                <g id="Group" transform="translate(0.355065, 0.953757)" fill="#FAC7A4">
                    <path d="M0.0163283165,0.945935997 C0.296160562,1.06744461 0.708946508,1.14450816 1.1709463,1.14450816 C2.01406732,1.14450816 2.69695719,0.88890134 2.69695719,0.572254082 L2.69695719,0 C2.69695719,0.487751229 1.52746059,0.888710588 0.0163283165,0.945935997 Z" id="Shape"></path>
                    <path d="M0.0163283165,1.8996928 C0.296160562,2.02120142 0.708946508,2.09826497 1.1709463,2.09826497 C2.01406732,2.09826497 2.69695719,1.84265814 2.69695719,1.52601089 L2.69695719,0.953756804 C2.69695719,1.44150803 1.52746059,1.84246739 0.0163283165,1.8996928 Z" id="Shape"></path>
                    <path d="M0.0163283165,2.85344959 C0.296160562,2.97495823 0.708946508,3.05202176 1.1709463,3.05202176 C2.01406732,3.05202176 2.69695719,2.79641494 2.69695719,2.4797677 L2.69695719,1.90751361 C2.69695719,2.39526483 1.52746059,2.79622421 0.0163283165,2.85344959 Z" id="Shape"></path>
                    <path d="M4.02210688,0.945935997 C4.30193914,1.06744461 4.71472508,1.14450816 5.17672489,1.14450816 C6.0198459,1.14450816 6.70273577,0.88890134 6.70273577,0.572254082 L6.70273577,0 C6.70273577,0.487751229 5.53323918,0.888710588 4.02210688,0.945935997 Z" id="Shape"></path>
                    <path d="M4.02210688,1.8996928 C4.30193914,2.02120142 4.71472508,2.09826497 5.17672489,2.09826497 C6.0198459,2.09826497 6.70273577,1.84265814 6.70273577,1.52601089 L6.70273577,0.953756804 C6.70273577,1.44150803 5.53323918,1.84246739 4.02210688,1.8996928 Z" id="Shape"></path>
                    <path d="M4.02210688,2.85344959 C4.30193914,2.97495823 4.71472508,3.05202176 5.17672489,3.05202176 C6.0198459,3.05202176 6.70273577,2.79641494 6.70273577,2.4797677 L6.70273577,1.90751361 C6.70273577,2.39526483 5.53323918,2.79622421 4.02210688,2.85344959 Z" id="Shape"></path>
                    <path d="M8.02788546,0.945935997 C8.30771772,1.06744461 8.72050367,1.14450816 9.18250344,1.14450816 C10.0256245,1.14450816 10.7085143,0.88890134 10.7085143,0.572254082 L10.7085143,0 C10.7085143,0.487751229 9.53901774,0.888710588 8.02788546,0.945935997 Z" id="Shape"></path>
                    <path d="M8.02788546,1.8996928 C8.30771772,2.02120142 8.72050367,2.09826497 9.18250344,2.09826497 C10.0256245,2.09826497 10.7085143,1.84265814 10.7085143,1.52601089 L10.7085143,0.953756804 C10.7085143,1.44150803 9.53901774,1.84246739 8.02788546,1.8996928 Z" id="Shape"></path>
                    <path d="M8.02788546,2.85344959 C8.30771772,2.97495823 8.72050367,3.05202176 9.18250344,3.05202176 C10.0256245,3.05202176 10.7085143,2.79641494 10.7085143,2.4797677 L10.7085143,1.90751361 C10.7085143,2.39526483 9.53901774,2.79622421 8.02788546,2.85344959 Z" id="Shape"></path>
                </g>
                <polygon id="Shape" fill="#ED6571" points="5.34103811 6.48554626 9.15606531 6.48554626 9.15606531 6.86704899 5.34103811 6.86704899"></polygon>
                <polygon id="Shape" fill="#ED6571" points="4.57803267 6.48554626 4.95953538 6.48554626 4.95953538 6.86704899 4.57803267 6.86704899"></polygon>
                <polygon id="Shape" fill="#ED6571" points="3.8150272 6.48554626 4.19652994 6.48554626 4.19652994 6.86704899 3.8150272 6.86704899"></polygon>
                <polygon id="Shape" fill="#ED6571" points="3.05202176 6.48554626 3.43352449 6.48554626 3.43352449 6.86704899 3.05202176 6.86704899"></polygon>
            </g>
        </g>
    </g>
</svg>