<?xml version="1.0" encoding="UTF-8"?>
<svg width="17px" height="17px" viewBox="0 0 17 17" version="1.1" xmlns="http://www.w3.org/2000/svg" xmlns:xlink="http://www.w3.org/1999/xlink">
    <!-- Generator: Sketch 62 (91390) - https://sketch.com -->
    <title>git-fork-thin-svgrepo-com</title>
    <desc>Created with Sketch.</desc>
    <g id="Page-1" stroke="none" stroke-width="1" fill="none" fill-rule="evenodd">
        <g id="git-fork-thin-svgrepo-com" transform="translate(0.500000, 0.375000)" fill="#000000" fill-rule="nonzero">
            <path d="M16.0000001,2.78103819 C16.0003695,1.29194969 14.8244293,0.0674508615 13.3340628,0.00501520141 C11.8436963,-0.0574204586 10.5691191,1.06441928 10.4445088,2.54830298 C10.3198985,4.03218669 11.3895866,5.35020503 12.8695652,5.53634115 L12.8695652,5.90608073 C12.868477,6.86442422 12.0905319,7.64105763 11.1305217,7.64219184 L4.86965217,7.64231858 C3.90914289,7.64231858 3.13048281,6.8650492 3.13043478,5.90620747 L3.13043478,5.53634115 C4.5880425,5.35301866 5.65175708,4.07009905 5.55975585,2.60639766 C5.46775462,1.14269627 4.25173918,0.00253119802 2.7826087,0.00253119802 C1.31347821,0.00253119802 0.0974627692,1.14269627 0.00546153952,2.60639766 C-0.0865396902,4.07009905 0.977174896,5.35301866 2.43478261,5.53634115 L2.43478261,5.90620747 C2.43477592,6.55084797 2.69130671,7.16908632 3.14793728,7.62490785 C3.60456785,8.08072937 4.22389056,8.33679272 4.86965217,8.33676302 L7.65238783,8.33670486 L7.65221391,10.4426137 C6.19461692,10.6259252 5.13090241,11.9088271 5.22289261,13.3725171 C5.31488282,14.8362072 6.53087995,15.9763415 7.99999842,15.9763415 C9.4691169,15.9763415 10.6851312,14.8362474 10.7771434,13.3725587 C10.8691556,11.90887 9.80546033,10.6259523 8.34786609,10.4426189 L8.34803565,8.33669444 L11.1305174,8.33663628 C12.4745373,8.33504862 13.5636706,7.24776731 13.565213,5.90608073 L13.565213,5.53634115 C14.9554681,5.35990173 15.9980722,4.18004889 16.0000001,2.78103819 Z M0.695652174,2.78103819 C0.695652174,1.63044497 1.63001444,0.697704861 2.7826087,0.697704861 C3.93520296,0.697704861 4.86956522,1.63044497 4.86956522,2.78103819 C4.86956522,3.93163142 3.93520296,4.86437153 2.7826087,4.86437153 C1.63055438,4.8630713 0.696954664,3.93109242 0.695652174,2.78103819 Z M10.0869565,13.1979167 C10.0869565,14.3485099 9.15259426,15.28125 8,15.28125 C6.84740574,15.28125 5.91304348,14.3485099 5.91304348,13.1979167 C5.91304348,12.0473234 6.84740574,11.1145833 8,11.1145833 C9.15204797,11.1158988 10.0856387,12.0478688 10.0869565,13.1979167 Z M13.2173913,4.86437153 C12.3732962,4.86437153 11.6123161,4.35678366 11.2892949,3.57829535 C10.9662737,2.79980703 11.1448248,1.90372823 11.7416902,1.30789907 C12.3385556,0.712069909 13.2361928,0.533828751 14.016035,0.856289168 C14.7958772,1.17874959 15.3043478,1.93840852 15.3043478,2.78103819 C15.3030453,3.93109242 14.3694456,4.8630713 13.2173913,4.86437153 Z" id="Shape"></path>
        </g>
    </g>
</svg>