<?xml version="1.0" encoding="UTF-8"?>
<svg width="17px" height="18px" viewBox="0 0 17 18" version="1.1" xmlns="http://www.w3.org/2000/svg" xmlns:xlink="http://www.w3.org/1999/xlink">
    <!-- Generator: Sketch 62 (91390) - https://sketch.com -->
    <title>graphql-svgrepo-com</title>
    <desc>Created with Sketch.</desc>
    <g id="Page-1" stroke="none" stroke-width="1" fill="none" fill-rule="evenodd">
        <g id="graphql-svgrepo-com" transform="translate(0.666667, 0.000000)" fill="#1C274C" fill-rule="nonzero">
            <path d="M9.53043478,2.08314607 L13.2218794,4.21722846 C13.5136045,3.91011236 13.9250117,3.71985019 14.3805517,3.71985019 C15.2639551,3.71985019 15.9798036,4.43670412 15.9798036,5.32134831 C15.9798036,6.07116105 15.4651706,6.7011236 14.7702665,6.87490637 L14.7590463,6.87715356 L14.7590463,11.1468165 C15.4689107,11.3213483 15.9872838,11.952809 15.9872838,12.705618 C15.9872838,13.5910112 15.2706872,14.3086142 14.3865358,14.3086142 C13.9100514,14.3086142 13.482936,14.1003745 13.1897148,13.7700375 L13.1882188,13.7685393 L9.51921459,15.8898876 C9.57082749,16.0411985 9.60074801,16.2149813 9.60074801,16.3955056 C9.60074801,17.2808989 8.88415147,17.9985019 8,17.9985019 C7.11584853,17.9985019 6.39925199,17.2808989 6.39925199,16.3955056 C6.39925199,16.2337079 6.42318841,16.0771536 6.46806919,15.9303371 L6.46507714,15.941573 L2.76914446,13.811236 C2.47741935,14.1161049 2.06676017,14.305618 1.61271622,14.305618 C0.72856475,14.305618 0.0119682094,13.588015 0.0119682094,12.7026217 C0.0119682094,11.9520599 0.527349229,11.3213483 1.2230014,11.1475655 L1.2342216,11.1453184 L1.2342216,6.87640449 C0.52286115,6.70337079 0.00299205236,6.07041199 0.00299205236,5.31685393 C0.00299205236,4.43146067 0.719588593,3.71385768 1.60374007,3.71385768 C1.89995325,3.71385768 2.17821412,3.79475655 2.41608228,3.93558052 L2.40860215,3.93183521 C2.54623656,4.01123596 2.66442263,4.10486891 2.76690042,4.21348315 L2.76764843,4.21423221 L6.46133707,2.07940075 C6.41944834,1.94307116 6.39551192,1.78651685 6.39551192,1.62397004 C6.39551192,0.739325843 7.11210846,0.0217228464 7.99551192,0.0217228464 C8.87891538,0.0217228464 9.59551192,0.739325843 9.59551192,1.62397004 C9.59551192,1.78801498 9.57082749,1.94606742 9.52519869,2.09513109 L9.52819074,2.08389513 L9.53043478,2.08314607 Z M9.14520804,2.74007491 C9.13099579,2.75580524 9.11753156,2.76928839 9.10257129,2.78277154 L9.10182328,2.7835206 L13.9347359,11.1655431 C13.9541842,11.1588015 13.9766246,11.1535581 13.9960729,11.1483146 L13.9960729,6.87340824 C13.2944367,6.69513109 12.7835437,6.06741573 12.7835437,5.32134831 C12.7835437,5.18426966 12.800748,5.05093633 12.8329126,4.92359551 L12.8306685,4.93483146 C12.8351566,4.91685393 12.8396447,4.89812734 12.8448808,4.88089888 L9.14520804,2.74007491 Z M6.88994857,2.78426966 L6.84506779,2.73932584 L3.14539504,4.87565543 C3.18503974,5.0082397 3.20822814,5.16104869 3.20822814,5.31910112 C3.20822814,6.04494382 2.7257597,6.6576779 2.06376812,6.85393258 L2.05254792,6.85692884 L1.99569892,6.87265918 L1.99569892,11.1483146 L2.05853202,11.1655431 L6.8914446,2.7835206 L6.88994857,2.78426966 Z M8.44282375,3.16404494 C8.30892941,3.20374532 8.15558672,3.22696629 7.99700795,3.22696629 C7.83842917,3.22696629 7.68508649,3.20374532 7.53997195,3.16104869 L7.55119215,3.16404494 L2.71902758,11.5453184 C2.93295933,11.7520599 3.09004208,12.0164794 3.1655914,12.3138577 L3.16783544,12.3250936 L12.8254324,12.3250936 C12.9017298,12.0157303 13.0595605,11.7498127 13.2734923,11.5438202 L13.2742403,11.5430712 L8.44506779,3.16404494 L8.44282375,3.16404494 Z M9.18036466,15.3191011 L12.858345,13.1932584 C12.8471248,13.1580524 12.8381487,13.1228464 12.8299205,13.0868914 L3.1655914,13.0868914 L3.14988312,13.1490637 L6.84431978,15.2853933 C7.13604488,14.9835206 7.54446003,14.7962547 7.99625993,14.7962547 C8.46451613,14.7962547 8.8856475,14.9970037 9.17886863,15.317603 L9.17961664,15.3191011 L9.18036466,15.3191011 Z" id="Shape"></path>
        </g>
    </g>
</svg>