<?xml version="1.0" encoding="UTF-8"?>
<svg width="13px" height="13px" viewBox="0 0 13 13" version="1.1" xmlns="http://www.w3.org/2000/svg" xmlns:xlink="http://www.w3.org/1999/xlink">
    <!-- Generator: Sketch 62 (91390) - https://sketch.com -->
    <title>shire-mkt</title>
    <desc>Created with Sketch.</desc>
    <g id="Page-1" stroke="none" stroke-width="1" fill="none" fill-rule="evenodd">
        <g id="shire-mkt" fill="#6D7278" fill-rule="nonzero">
            <path d="M6.5,0.0166952055 C2.92166096,0.0166952055 0.0166952055,2.92166096 0.0166952055,6.5 C0.0166952055,10.078339 2.92166096,12.9833048 6.5,12.9833048 C9.36879279,12.9833048 11.8035103,11.1162243 12.6577483,8.53125 L12.1290668,8.53125 C11.2970891,10.8351883 9.0933219,12.4824486 6.5,12.4824486 C3.19434932,12.4824486 0.51755137,9.80565072 0.51755137,6.5 C0.51755137,3.19434932 3.19434932,0.51755137 6.5,0.51755137 C9.0933219,0.51755137 11.2970891,2.16481164 12.1290668,4.46875 L12.6577483,4.46875 C11.8035103,1.88433219 9.36879279,0.0166952055 6.5,0.0166952055 Z M6.24957192,1.41408391 C5.80436644,1.43550942 5.37585617,1.51369863 4.96960617,1.64141695 L4.96960617,9.36601031 L6.24957192,9.36601031 L6.24957192,1.41408391 Z M6.75042808,1.41408391 L6.75042808,5.35916096 L8.03039383,5.35916096 L8.03039383,1.64141695 C7.62414383,1.51369863 7.19563356,1.43550942 6.75042808,1.41408391 Z M4.46875,1.82840326 C4.00128424,2.03152826 3.56999144,2.30393836 3.18878424,2.62949486 L3.18878424,2.68792808 L4.46875,2.68792808 L4.46875,1.82840326 Z M8.53125,1.82840326 L8.53125,8.03039383 L9.81121578,8.03039383 L9.81121578,2.62949486 C9.43000858,2.30393836 8.99871578,2.03152826 8.53125,1.82840326 Z M2.68792808,3.12200342 C1.89128853,4.02076199 1.40796233,5.20333904 1.40796233,6.5 C1.40796233,7.79666096 1.89128853,8.97923804 2.68792808,9.87799654 L2.68792808,7.40154109 C2.41802226,7.19285103 2.2427226,6.86451199 2.2427226,6.5 C2.2427226,6.13548801 2.41802226,5.80714897 2.68792808,5.5984589 L2.68792808,3.12200342 Z M10.3120719,3.12200342 L10.3120719,9.87799654 C10.6654537,9.48009416 10.9548373,9.02654106 11.171875,8.53125 L10.8129281,8.53125 L10.8129281,4.46875 L11.171875,4.46875 C10.9548373,3.9734589 10.6654537,3.51990582 10.3120719,3.12200342 Z M3.18878424,3.18878424 L3.18878424,5.37585617 C3.25278254,5.36472603 3.31678082,5.35916096 3.38356164,5.35916096 C3.88720035,5.35916096 4.31849315,5.69306507 4.46875,6.14940068 L4.46875,3.18878424 L3.18878424,3.18878424 Z M11.6643836,4.93287672 L11.6643836,6.25068493 L12.9821918,6.25068493 L12.9821918,4.93287672 L11.6643836,4.93287672 Z M3.38356164,5.86001713 C3.02739726,5.86001713 2.74357877,6.14383562 2.74357877,6.5 C2.74357877,6.85616438 3.02739726,7.13998287 3.38356164,7.13998287 C3.73972603,7.13998287 4.02354452,6.85616438 4.02354452,6.5 C4.02354452,6.14383562 3.73972603,5.86001713 3.38356164,5.86001713 Z M6.75042808,5.86001713 L6.75042808,11.5864726 C7.19563356,11.5642123 7.62414383,11.4863014 8.03039383,11.3583048 L8.03039383,5.86001713 L6.75042808,5.86001713 Z M11.6643836,6.78493151 L11.6643836,8.10273973 L12.9821918,8.10273973 L12.9821918,6.78493151 L11.6643836,6.78493151 Z M4.46875,6.85059932 C4.31849315,7.30693493 3.88720035,7.64083904 3.38356164,7.64083904 C3.31678082,7.64083904 3.25278254,7.63527397 3.18878424,7.62414383 L3.18878424,10.3705051 C3.56999144,10.6960617 4.00128424,10.96875 4.46875,11.171875 L4.46875,6.85059932 Z M8.53125,8.53125 L8.53125,11.171875 C8.99871578,10.96875 9.43000858,10.6960617 9.81121578,10.3705051 L9.81121578,8.53125 L8.53125,8.53125 Z M4.96960617,9.86686642 L4.96960617,11.3583048 C5.37585617,11.4863014 5.80436644,11.5642123 6.24957192,11.5864726 L6.24957192,9.86686642 L4.96960617,9.86686642 Z" id="Shape"></path>
        </g>
    </g>
</svg>