<?xml version="1.0" encoding="UTF-8"?>
<svg width="739px" height="297px" viewBox="0 0 739 297" version="1.1" xmlns="http://www.w3.org/2000/svg" xmlns:xlink="http://www.w3.org/1999/xlink">
    <!-- Generator: Sketch 62 (91390) - https://sketch.com -->
    <title>Group</title>
    <desc>Created with Sketch.</desc>
    <g id="Page-1" stroke="none" stroke-width="1" fill="none" fill-rule="evenodd">
        <g id="Group" transform="translate(0.000000, -10.000000)">
            <text id="----name:-&quot;Object-De" font-family="NotoSerifSC-Bold, Noto Serif SC" font-size="12" font-weight="bold">
                <tspan x="152" y="14" fill="#0032B3">---</tspan>
                <tspan x="165.176" y="14" font-family="NotoSerifSC-Regular, Noto Serif SC" font-weight="normal" fill="#000000"></tspan>
                <tspan x="152" y="31" fill="#861094">name</tspan>
                <tspan x="186.092" y="31" font-family="NotoSerifSC-Regular, Noto Serif SC" font-weight="normal" fill="#000000">: </tspan>
                <tspan x="193.1" y="31" font-family="NotoSerifSC-Regular, Noto Serif SC" font-weight="normal" fill="#087D18">"Object Demo"</tspan>
                <tspan x="276.404" y="31" font-family="NotoSerifSC-Regular, Noto Serif SC" font-weight="normal" fill="#000000"></tspan>
                <tspan x="152" y="48" fill="#861094">description</tspan>
                <tspan x="221.852" y="48" font-family="NotoSerifSC-Regular, Noto Serif SC" font-weight="normal" fill="#000000">: </tspan>
                <tspan x="228.86" y="48" font-family="NotoSerifSC-Regular, Noto Serif SC" font-weight="normal" fill="#087D18">"A simple object demo"</tspan>
                <tspan x="360.692" y="48" font-family="NotoSerifSC-Regular, Noto Serif SC" font-weight="normal" fill="#000000"></tspan>
                <tspan x="152" y="65" fill="#861094">interaction</tspan>
                <tspan x="219.608" y="65" font-family="NotoSerifSC-Regular, Noto Serif SC" font-weight="normal" fill="#000000">: AppendCursor</tspan>
                <tspan x="152" y="82" fill="#861094">actionLocation</tspan>
                <tspan x="243.428" y="82" font-family="NotoSerifSC-Regular, Noto Serif SC" font-weight="normal" fill="#000000">: ContextMenu</tspan>
                <tspan x="152" y="99" fill="#861094">postProcessor</tspan>
                <tspan x="238.244" y="99" font-family="NotoSerifSC-Regular, Noto Serif SC" font-weight="normal" fill="#000000">: [</tspan>
                <tspan x="249.344" y="99" font-family="NotoSerifSC-Regular, Noto Serif SC" font-weight="normal" fill="#087D18">"VerifyCode"</tspan>
                <tspan x="320.984" y="99" font-family="NotoSerifSC-Regular, Noto Serif SC" font-weight="normal" fill="#000000">, </tspan>
                <tspan x="327.992" y="99" font-family="NotoSerifSC-Regular, Noto Serif SC" font-weight="normal" fill="#087D18">"RunCode"</tspan>
                <tspan x="389.792" y="99" font-family="NotoSerifSC-Regular, Noto Serif SC" font-weight="normal" fill="#000000">]</tspan>
                <tspan x="152" y="116" fill="#861094">fileRule</tspan>
                <tspan x="199.172" y="116" font-family="NotoSerifSC-Regular, Noto Serif SC" font-weight="normal" fill="#000000">:</tspan>
                <tspan x="152" y="133" font-family="NotoSerifSC-Regular, Noto Serif SC" font-weight="normal" fill="#000000">  </tspan>
                <tspan x="158.192" y="133" font-family="NotoSerifSC-Regular, Noto Serif SC" font-weight="normal" fill="#087D18">"**/*.java"</tspan>
                <tspan x="213.332" y="133" font-family="NotoSerifSC-Regular, Noto Serif SC" font-weight="normal" fill="#000000">: </tspan>
                <tspan x="220.34" y="133" font-family="NotoSerifSC-Regular, Noto Serif SC" font-weight="normal" fill="#087D18">"You MUST use should_xx_xx style for test method name, You MUST use given-when-then </tspan>
                <tspan x="152" y="150" font-family="NotoSerifSC-Regular, Noto Serif SC" font-weight="normal" fill="#087D18">style."</tspan>
                <tspan x="185.636" y="150" font-family="NotoSerifSC-Regular, Noto Serif SC" font-weight="normal" fill="#000000"></tspan>
                <tspan x="152" y="167" fill="#0032B3">---</tspan>
                <tspan x="165.176" y="167" font-family="NotoSerifSC-Regular, Noto Serif SC" font-weight="normal" fill="#0032B3"></tspan>
                <tspan x="152" y="184" font-family="NotoSerifSC-Regular, Noto Serif SC" font-weight="normal" fill="#000000"></tspan>
                <tspan x="152" y="201" font-family="NotoSerifSC-Regular, Noto Serif SC" font-weight="normal" fill="#000000">Generate code for API.</tspan>
                <tspan x="152" y="218" font-family="NotoSerifSC-Regular, Noto Serif SC" font-weight="normal" fill="#000000"></tspan>
                <tspan x="152" y="235" font-family="NotoSerifSC-Regular, Noto Serif SC" font-weight="normal" fill="#000000">@</tspan>
                <tspan x="162.812" y="235" fill="#861094">api-market </tspan>
                <tspan x="232.88" y="235" font-family="NotoSerifSC-Regular, Noto Serif SC" font-weight="normal" fill="#000000">intergration User login oauth API</tspan>
                <tspan x="152" y="252" font-family="NotoSerifSC-Regular, Noto Serif SC" font-weight="normal" fill="#000000"></tspan>
                <tspan x="152" y="269" font-family="NotoSerifSC-Regular, Noto Serif SC" font-weight="normal" fill="#000000">Here is current $</tspan>
                <tspan x="249.188" y="269" fill="#861094">language</tspan>
                <tspan x="304.4" y="269" font-family="NotoSerifSC-Regular, Noto Serif SC" font-weight="normal" fill="#000000"> code:</tspan>
                <tspan x="152" y="286" font-family="NotoSerifSC-Regular, Noto Serif SC" font-weight="normal" fill="#000000"></tspan>
                <tspan x="152" y="303" fill="#0032B3">/file</tspan>
                <tspan x="176.192" y="303" font-family="NotoSerifSC-Regular, Noto Serif SC" font-weight="normal" fill="#000000">:</tspan>
                <tspan x="180.104" y="303" fill="#087D18">src/main/kotlin/com/phodal/blog/controller/UserController.kt</tspan>
                <tspan x="560.624" y="303" fill="#000000"></tspan>
                <tspan x="152" y="320" font-family="NotoSerifSC-Regular, Noto Serif SC" font-weight="normal" fill="#000000"></tspan>
            </text>
            <rect id="Rectangle" stroke="#979797" fill="#D8D8D8" x="131.5" y="25.5" width="9" height="56"></rect>
            <rect id="Rectangle" stroke="#979797" fill="#D8D8D8" x="131.5" y="93.5" width="9" height="56"></rect>
            <text id="Behavior" font-family="NotoSerifSC-Bold, Noto Serif SC" font-size="18" font-weight="bold" fill="#DA4167">
                <tspan x="0" y="56">Behavior</tspan>
            </text>
            <text id="IDE-Abstract" font-family="NotoSerifSC-Bold, Noto Serif SC" font-size="18" font-weight="bold" fill="#DA4167">
                <tspan x="0" y="124">IDE Abstract</tspan>
            </text>
            <text id="AI-Agents" font-family="NotoSerifSC-Bold, Noto Serif SC" font-size="18" font-weight="bold" fill="#011C32">
                <tspan x="0" y="235">AI Agents</tspan>
            </text>
            <text id="Command" font-family="NotoSerifSC-Bold, Noto Serif SC" font-size="18" font-weight="bold" fill="#011C32">
                <tspan x="0" y="303">Command</tspan>
            </text>
            <text id="Variable" font-family="NotoSerifSC-Bold, Noto Serif SC" font-size="18" font-weight="bold" fill="#011C32">
                <tspan x="489" y="235">Variable</tspan>
            </text>
            <path id="Line" d="M124.469711,219.745196 L125.335167,220.246179 L137.250926,227.143802 L138.789516,228.034438 L137.229407,228.88682 L125.146995,235.488169 L124.269433,235.967633 L123.310504,234.212511 L124.188066,233.733046 L132.921,228.962 L124.755911,228.86126 L95.4876553,228.499924 L94.4877315,228.487579 L94.5124209,226.487731 L95.5123447,226.500076 L124.7806,226.861413 L132.944,226.962 L124.333201,221.977093 L123.467744,221.47611 L124.469711,219.745196 Z" fill="#013D4F" fill-rule="nonzero"></path>
            <path id="Line" d="M130.219711,286.995196 L131.085167,287.496179 L143.000926,294.393802 L144.539516,295.284438 L142.979407,296.13682 L130.896995,302.738169 L130.019433,303.217633 L129.060504,301.462511 L129.938066,300.983046 L138.671,296.212 L130.505911,296.11126 L101.237655,295.749924 L100.237731,295.737579 L100.262421,293.737731 L101.262345,293.750076 L130.5306,294.111413 L138.694,294.212 L130.083201,289.227093 L129.217744,288.72611 L130.219711,286.995196 Z" fill="#013D4F" fill-rule="nonzero"></path>
            <path id="Line" d="M489.884784,233.896751 L490.103249,235.884784 L489.109233,235.994016 L318.198796,254.775383 L310.157,255.658 L319.312125,259.560831 L320.232038,259.952954 L319.447792,261.792779 L318.527879,261.400656 L305.862365,256.001837 L304.226964,255.304729 L305.671956,254.269117 L316.862831,246.248717 L317.675638,245.666185 L318.840703,247.2918 L318.027895,247.874332 L309.94,253.67 L317.980331,252.78735 L488.890767,234.005984 L489.884784,233.896751 Z" fill="#013D4F" fill-rule="nonzero"></path>
        </g>
    </g>
</svg>