<?xml version="1.0" encoding="UTF-8"?>
<svg width="622px" height="290px" viewBox="0 0 622 290" version="1.1" xmlns="http://www.w3.org/2000/svg" xmlns:xlink="http://www.w3.org/1999/xlink">
    <!-- Generator: Sketch 62 (91390) - https://sketch.com -->
    <title>Group 6</title>
    <desc>Created with Sketch.</desc>
    <g id="Page-1" stroke="none" stroke-width="1" fill="none" fill-rule="evenodd">
        <g id="Group-6" transform="translate(0.500000, 0.000000)">
            <g id="Group-3" transform="translate(99.500000, 125.000000)">
                <rect id="Rectangle" fill="#011C32" x="0" y="0" width="120" height="40"></rect>
                <text id="Input" font-family="NotoSerifSC-Bold, Noto Serif SC" font-size="12" font-weight="bold" fill="#FFFFFF">
                    <tspan x="42" y="25">Input </tspan>
                </text>
            </g>
            <g id="Group" transform="translate(294.500000, 125.000000)">
                <rect id="Rectangle" fill="#011C32" x="0" y="0" width="120" height="40"></rect>
                <text id="Operator" font-family="NotoSerifSC-Bold, Noto Serif SC" font-size="12" font-weight="bold" fill="#FFFFFF">
                    <tspan x="32" y="26">Operator</tspan>
                </text>
            </g>
            <g id="Group-4" transform="translate(294.500000, 250.000000)">
                <rect id="Rectangle" fill="#087D18" x="0" y="0" width="120" height="40"></rect>
                <text id="LLM" font-family="NotoSerifSC-Bold, Noto Serif SC" font-size="12" font-weight="bold" fill="#FFFFFF">
                    <tspan x="46" y="26">LLM</tspan>
                </text>
            </g>
            <g id="Group-2" transform="translate(294.500000, 0.000000)">
                <rect id="Rectangle" fill="#861094" x="0" y="0" width="120" height="40"></rect>
                <text id="Variable-IDE-Abstrac" font-family="NotoSerifSC-Bold, Noto Serif SC" font-size="12" font-weight="bold" fill="#FFFFFF">
                    <tspan x="35.036" y="17">Variable</tspan>
                    <tspan x="5.234" y="34"> IDE Abstract APIs</tspan>
                </text>
            </g>
            <g id="Group-5" transform="translate(489.500000, 125.000000)">
                <rect id="Rectangle" fill="#011C32" x="0" y="0" width="120" height="40"></rect>
                <text id="Output" font-family="NotoSerifSC-Bold, Noto Serif SC" font-size="12" font-weight="bold" fill="#FFFFFF">
                    <tspan x="37" y="26">Output </tspan>
                </text>
            </g>
            <path id="Line" d="M85.8686857,136.888163 L86.7402612,137.378424 L98.7402612,144.128424 L100.289729,145 L98.7402612,145.871576 L86.7402612,152.621576 L85.8686857,153.111837 L84.8881632,151.368686 L85.7597388,150.878424 L94.432,146 L-0.5,146 L-0.5,144 L94.432,144 L85.7597388,139.121576 L84.8881632,138.631314 L85.8686857,136.888163 Z" fill="#979797" fill-rule="nonzero"></path>
            <path id="Line" d="M277.868686,136.888163 L278.740261,137.378424 L290.740261,144.128424 L292.289729,145 L290.740261,145.871576 L278.740261,152.621576 L277.868686,153.111837 L276.888163,151.368686 L277.759739,150.878424 L286.432,146 L219.5,146 L219.5,144 L286.432,144 L277.759739,139.121576 L276.888163,138.631314 L277.868686,136.888163 Z" fill="#979797" fill-rule="nonzero"></path>
            <path id="Line" d="M329,41.1614907 L329.871576,42.7109583 L336.621576,54.7109583 L337.111837,55.5825338 L335.368686,56.5630563 L334.878424,55.6914808 L330,47.018 L330,121.04878 L328,121.04878 L328,47.018 L323.121576,55.6914808 L322.631314,56.5630563 L320.888163,55.5825338 L321.378424,54.7109583 L328.128424,42.7109583 L329,41.1614907 Z" fill="#979797" fill-rule="nonzero"></path>
            <path id="Line" d="M382,42.9512195 L381.999,116.983 L386.878424,108.308519 L387.368686,107.436944 L389.111837,108.417466 L388.621576,109.289042 L381.871576,121.289042 L381,122.838509 L380.128424,121.289042 L373.378424,109.289042 L372.888163,108.417466 L374.631314,107.436944 L375.121576,108.308519 L379.999,116.98 L380,42.9512195 L382,42.9512195 Z" fill="#979797" fill-rule="nonzero"></path>
            <path id="Line" d="M355.5,166 L355.5,240.932 L360.378424,232.259739 L360.868686,231.388163 L362.611837,232.368686 L362.121576,233.240261 L355.371576,245.240261 L354.5,246.789729 L353.628424,245.240261 L346.878424,233.240261 L346.388163,232.368686 L348.131314,231.388163 L348.621576,232.259739 L353.5,240.932 L353.5,166 L355.5,166 Z" fill="#979797" fill-rule="nonzero"></path>
            <path id="Line" d="M549.5,164.210271 L550.371576,165.759739 L557.121576,177.759739 L557.611837,178.631314 L555.868686,179.611837 L555.378424,178.740261 L550.5,170.067 L550.5,273 L417.567,273 L426.240261,277.878424 L427.111837,278.368686 L426.131314,280.111837 L425.259739,279.621576 L413.259739,272.871576 L411.710271,272 L413.259739,271.128424 L425.259739,264.378424 L426.131314,263.888163 L427.111837,265.631314 L426.240261,266.121576 L417.567,271 L548.5,271 L548.5,170.067 L543.621576,178.740261 L543.131314,179.611837 L541.388163,178.631314 L541.878424,177.759739 L548.628424,165.759739 L549.5,164.210271 Z" fill="#979797" fill-rule="nonzero"></path>
            <path id="Line" d="M289.511107,265.945984 L290.511049,265.956799 L294.510815,266.000058 L295.510756,266.010873 L295.489127,268.010756 L294.489185,267.999942 L290.489419,267.956682 L289.489478,267.945867 L289.511107,265.945984 Z M281.511575,265.859465 L282.511517,265.87028 L286.511283,265.91354 L287.511224,265.924354 L287.489595,267.924238 L286.489653,267.913423 L282.489887,267.870163 L281.489945,267.859348 L281.511575,265.859465 Z M273.512043,265.772947 L274.511985,265.783761 L278.511751,265.827021 L279.511692,265.837836 L279.490062,267.837719 L278.490121,267.826904 L274.490355,267.783644 L273.490413,267.77283 L273.512043,265.772947 Z M265.512511,265.686428 L266.512452,265.697243 L270.512218,265.740502 L271.51216,265.751317 L271.49053,267.7512 L270.490589,267.740385 L266.490823,267.697126 L265.490881,267.686311 L265.512511,265.686428 Z M257.512979,265.599909 L258.51292,265.610724 L262.512686,265.653983 L263.512628,265.664798 L263.490998,267.664681 L262.491057,267.653866 L258.491291,267.610607 L257.491349,267.599792 L257.512979,265.599909 Z M249.513447,265.51339 L250.513388,265.524205 L254.513154,265.567464 L255.513096,265.578279 L255.491466,267.578162 L254.491524,267.567347 L250.491758,267.524088 L249.491817,267.513273 L249.513447,265.51339 Z M241.513914,265.426871 L242.513856,265.437686 L246.513622,265.480945 L247.513564,265.49176 L247.491934,267.491643 L246.491992,267.480828 L242.492226,267.437569 L241.492285,267.426754 L241.513914,265.426871 Z M233.514382,265.340352 L234.514324,265.351167 L238.51409,265.394427 L239.514031,265.405241 L239.492402,267.405124 L238.49246,267.39431 L234.492694,267.35105 L233.492753,267.340235 L233.514382,265.340352 Z M225.51485,265.253833 L226.514792,265.264648 L230.514558,265.307908 L231.514499,265.318723 L231.49287,267.318606 L230.492928,267.307791 L226.493162,267.264531 L225.49322,267.253717 L225.51485,265.253833 Z M217.515318,265.167315 L218.51526,265.178129 L222.515026,265.221389 L223.514967,265.232204 L223.493337,267.232087 L222.493396,267.221272 L218.49363,267.178013 L217.493688,267.167198 L217.515318,265.167315 Z M209.515786,265.080796 L210.515727,265.091611 L214.515493,265.13487 L215.515435,265.145685 L215.493805,267.145568 L214.493864,267.134753 L210.494098,267.091494 L209.494156,267.080679 L209.515786,265.080796 Z M201.516254,264.994277 L202.516195,265.005092 L206.515961,265.048351 L207.515903,265.059166 L207.494273,267.059049 L202.494566,267.004975 L201.494624,266.99416 L201.516254,264.994277 Z M193.516722,264.907758 L194.516663,264.918573 L198.516429,264.961832 L199.516371,264.972647 L199.494741,266.97253 L198.494799,266.961715 L194.495033,266.918456 L193.495092,266.907641 L193.516722,264.907758 Z M185.517189,264.821239 L186.517131,264.832054 L190.516897,264.875314 L191.516839,264.886128 L191.495209,266.886011 L186.495501,266.831937 L185.49556,266.821122 L185.517189,264.821239 Z M177.517657,264.73472 L178.517599,264.745535 L182.517365,264.788795 L183.517306,264.79961 L183.495677,266.799493 L182.495735,266.788678 L178.495969,266.745418 L177.496028,266.734603 L177.517657,264.73472 Z M169.518125,264.648202 L170.518067,264.659016 L174.517833,264.702276 L175.517774,264.713091 L175.496145,266.712974 L174.496203,266.702159 L170.496437,266.658899 L169.496495,266.648085 L169.518125,264.648202 Z M161.518593,264.561683 L162.518535,264.572498 L166.518301,264.615757 L167.518242,264.626572 L167.496612,266.626455 L166.496671,266.61564 L162.496905,266.572381 L161.496963,266.561566 L161.518593,264.561683 Z M161.5,258.558562 L161.5,264.558562 L159.5,264.558562 L159.5,258.558562 L161.5,258.558562 Z M161.5,250.558562 L161.5,256.558562 L159.5,256.558562 L159.5,250.558562 L161.5,250.558562 Z M161.5,242.558562 L161.5,248.558562 L159.5,248.558562 L159.5,242.558562 L161.5,242.558562 Z M161.5,234.558562 L161.5,240.558562 L159.5,240.558562 L159.5,234.558562 L161.5,234.558562 Z M161.5,226.558562 L161.5,232.558562 L159.5,232.558562 L159.5,226.558562 L161.5,226.558562 Z M161.5,218.558562 L161.5,224.558562 L159.5,224.558562 L159.5,218.558562 L161.5,218.558562 Z M161.5,210.558562 L161.5,216.558562 L159.5,216.558562 L159.5,210.558562 L161.5,210.558562 Z M161.5,202.558562 L161.5,208.558562 L159.5,208.558562 L159.5,202.558562 L161.5,202.558562 Z M161.5,194.558562 L161.5,200.558562 L159.5,200.558562 L159.5,194.558562 L161.5,194.558562 Z M161.5,186.558562 L161.5,192.558562 L159.5,192.558562 L159.5,186.558562 L161.5,186.558562 Z M161.5,178.558562 L161.5,184.558562 L159.5,184.558562 L159.5,178.558562 L161.5,178.558562 Z M160.5,164.210271 L161.371576,165.759739 L168.121576,177.759739 L168.611837,178.631314 L166.868686,179.611837 L166.378424,178.740261 L160.5,168.289 L154.621576,178.740261 L154.131314,179.611837 L152.388163,178.631314 L152.878424,177.759739 L159.628424,165.759739 L160.5,164.210271 Z M161.5,170.558562 L161.5,176.558562 L159.5,176.558562 L159.5,170.558562 L161.5,170.558562 Z" fill="#979797" fill-rule="nonzero"></path>
            <path id="Line" d="M473.868686,136.888163 L474.740261,137.378424 L486.740261,144.128424 L488.289729,145 L486.740261,145.871576 L474.740261,152.621576 L473.868686,153.111837 L472.888163,151.368686 L473.759739,150.878424 L482.432,146 L419.567,146 L428.240261,150.878424 L429.111837,151.368686 L428.131314,153.111837 L427.259739,152.621576 L415.259739,145.871576 L413.710271,145 L415.259739,144.128424 L427.259739,137.378424 L428.131314,136.888163 L429.111837,138.631314 L428.240261,139.121576 L419.567,144 L482.432,144 L473.759739,139.121576 L472.888163,138.631314 L473.868686,136.888163 Z" fill="#979797" fill-rule="nonzero"></path>
            <text id="source-code" font-family="NotoSerifSC-Bold, Noto Serif SC" font-size="8" font-weight="bold" fill="#011C32">
                <tspan x="0.5" y="136">source code</tspan>
            </text>
            <text id="Shire-code" font-family="NotoSerifSC-Bold, Noto Serif SC" font-size="8" font-weight="bold" fill="#011C32">
                <tspan x="2.5" y="161">Shire code</tspan>
            </text>
            <text id="Error-Handle" font-family="NotoSerifSC-Bold, Noto Serif SC" font-size="8" font-weight="bold" fill="#000000">
                <tspan x="435.5" y="259">Error Handle</tspan>
            </text>
            <text id="Orchestration" font-family="NotoSerifSC-Bold, Noto Serif SC" font-size="8" font-weight="bold" fill="#000000">
                <tspan x="226.5" y="259">Orchestration</tspan>
            </text>
            <text id="Shire-Instruction" font-family="NotoSerifSC-Bold, Noto Serif SC" font-size="8" font-weight="bold" fill="#000000">
                <tspan x="435.5" y="288">Shire Instruction</tspan>
            </text>
            <text id="Template" font-family="NotoSerifSC-Bold, Noto Serif SC" font-size="8" font-weight="bold" fill="#000000">
                <tspan x="224.5" y="163">Template</tspan>
            </text>
            <text id="PSI-Query-λ" font-family="NotoSerifSC-Bold, Noto Serif SC" font-size="8" font-weight="bold" fill="#000000">
                <tspan x="239.5" y="81">PSI Query λ </tspan>
            </text>
            <text id="VIAA-Command" font-family="NotoSerifSC-Bold, Noto Serif SC" font-size="8" font-weight="bold" fill="#000000">
                <tspan x="239.5" y="95">VIAA Command</tspan>
            </text>
            <text id="Variable-Resolver" font-family="NotoSerifSC-Bold, Noto Serif SC" font-size="8" font-weight="bold" fill="#000000">
                <tspan x="239.5" y="66">Variable Resolver</tspan>
            </text>
            <text id="PostProcessors" font-family="NotoSerifSC-Bold, Noto Serif SC" font-size="8" font-weight="bold" fill="#000000">
                <tspan x="560.5" y="118">PostProcessors</tspan>
            </text>
            <text id="Condition-Visible" font-family="NotoSerifSC-Bold, Noto Serif SC" font-size="8" font-weight="bold" fill="#000000">
                <tspan x="99.5" y="103">Condition Visible</tspan>
            </text>
            <text id="IDE-Behavior-abstrac" font-family="NotoSerifSC-Bold, Noto Serif SC" font-size="8" font-weight="bold" fill="#000000">
                <tspan x="239.5" y="110">IDE Behavior abstract</tspan>
            </text>
            <text id="Cloud-Agent" font-family="NotoSerifSC-Bold, Noto Serif SC" font-size="8" font-weight="bold" fill="#000000">
                <tspan x="364.5" y="215">Cloud Agent</tspan>
            </text>
            <text id="Local-Agent" font-family="NotoSerifSC-Bold, Noto Serif SC" font-size="8" font-weight="bold" fill="#000000">
                <tspan x="364.5" y="197">Local Agent</tspan>
            </text>
            <text id="Local-Command" font-family="NotoSerifSC-Bold, Noto Serif SC" font-size="8" font-weight="bold" fill="#000000">
                <tspan x="422.5" y="121">Local Command</tspan>
            </text>
            <text id="Action-Pattern-Trans" font-family="NotoSerifSC-Bold, Noto Serif SC" font-size="8" font-weight="bold" fill="#000000">
                <tspan x="99.5" y="118">Action-Pattern Transform</tspan>
            </text>
        </g>
    </g>
</svg>