<?xml version="1.0" encoding="UTF-8"?>
<svg width="677px" height="318px" viewBox="0 0 677 318" version="1.1" xmlns="http://www.w3.org/2000/svg" xmlns:xlink="http://www.w3.org/1999/xlink">
    <!-- Generator: Sketch 62 (91390) - https://sketch.com -->
    <title>Group</title>
    <desc>Created with Sketch.</desc>
    <defs>
        <rect id="path-1" x="147" y="0" width="423" height="318"></rect>
        <mask id="mask-2" maskContentUnits="userSpaceOnUse" maskUnits="objectBoundingBox" x="0" y="0" width="423" height="318" fill="white">
            <use xlink:href="#path-1"></use>
        </mask>
    </defs>
    <g id="Page-1" stroke="none" stroke-width="1" fill="none" fill-rule="evenodd">
        <g id="Group">
            <use id="Rectangle" stroke="#CC850A" mask="url(#mask-2)" stroke-width="4" stroke-dasharray="8,4" xlink:href="#path-1"></use>
            <text id="----name:-&quot;Object-De" font-family="NotoSerifSC-Bold, Noto Serif SC" font-size="12" font-weight="bold">
                <tspan x="153" y="14" fill="#0032B3">---</tspan>
                <tspan x="166.176" y="14" fill="#000000"></tspan>
                <tspan x="153" y="31" fill="#861094">name</tspan>
                <tspan x="187.092" y="31" font-family="NotoSerifSC-Regular, Noto Serif SC" font-weight="normal" fill="#000000">: </tspan>
                <tspan x="194.1" y="31" font-family="NotoSerifSC-Regular, Noto Serif SC" font-weight="normal" fill="#087D18">"Object Demo"</tspan>
                <tspan x="277.404" y="31" font-family="NotoSerifSC-Regular, Noto Serif SC" font-weight="normal" fill="#000000"></tspan>
                <tspan x="153" y="48" fill="#861094">description</tspan>
                <tspan x="222.852" y="48" font-family="NotoSerifSC-Regular, Noto Serif SC" font-weight="normal" fill="#000000">: </tspan>
                <tspan x="229.86" y="48" font-family="NotoSerifSC-Regular, Noto Serif SC" font-weight="normal" fill="#087D18">"A simple object demo"</tspan>
                <tspan x="361.692" y="48" font-family="NotoSerifSC-Regular, Noto Serif SC" font-weight="normal" fill="#000000"></tspan>
                <tspan x="153" y="65" fill="#861094">interaction</tspan>
                <tspan x="220.608" y="65" font-family="NotoSerifSC-Regular, Noto Serif SC" font-weight="normal" fill="#000000">: AppendCursor</tspan>
                <tspan x="153" y="82" fill="#861094">actionLocation</tspan>
                <tspan x="244.428" y="82" font-family="NotoSerifSC-Regular, Noto Serif SC" font-weight="normal" fill="#000000">: ContextMenu</tspan>
                <tspan x="153" y="99" fill="#861094">postProcessor</tspan>
                <tspan x="239.244" y="99" font-family="NotoSerifSC-Regular, Noto Serif SC" font-weight="normal" fill="#000000">: [</tspan>
                <tspan x="250.344" y="99" font-family="NotoSerifSC-Regular, Noto Serif SC" font-weight="normal" fill="#087D18">"VerifyCode"</tspan>
                <tspan x="321.984" y="99" font-family="NotoSerifSC-Regular, Noto Serif SC" font-weight="normal" fill="#000000">, </tspan>
                <tspan x="328.992" y="99" font-family="NotoSerifSC-Regular, Noto Serif SC" font-weight="normal" fill="#087D18">"RunCode"</tspan>
                <tspan x="390.792" y="99" font-family="NotoSerifSC-Regular, Noto Serif SC" font-weight="normal" fill="#000000">]</tspan>
                <tspan x="153" y="116" fill="#861094">filenameFilter</tspan>
                <tspan x="200.172" y="116" font-family="NotoSerifSC-Regular, Noto Serif SC" font-weight="normal" fill="#000000">:</tspan>
                <tspan x="153" y="133" font-family="NotoSerifSC-Regular, Noto Serif SC" font-weight="normal" fill="#000000">  </tspan>
                <tspan x="159.192" y="133" font-family="NotoSerifSC-Regular, Noto Serif SC" font-weight="normal" fill="#087D18">"**/*.java"</tspan>
                <tspan x="214.332" y="133" font-family="NotoSerifSC-Regular, Noto Serif SC" font-weight="normal" fill="#000000">: </tspan>
                <tspan x="221.34" y="133" font-family="NotoSerifSC-Regular, Noto Serif SC" font-weight="normal" fill="#087D18">"You MUST use should_xx_xx style for test method name.”</tspan>
                <tspan x="565.188" y="133" font-family="NotoSerifSC-Regular, Noto Serif SC" font-weight="normal" fill="#000000"></tspan>
                <tspan x="153" y="150" fill="#0032B3">---</tspan>
                <tspan x="153" y="167" font-family="NotoSerifSC-Regular, Noto Serif SC" font-weight="normal" fill="#000000"></tspan>
                <tspan x="153" y="184" font-family="NotoSerifSC-Regular, Noto Serif SC" font-weight="normal" fill="#000000">Generate code for API.</tspan>
                <tspan x="153" y="201" font-family="NotoSerifSC-Regular, Noto Serif SC" font-weight="normal" fill="#000000"></tspan>
                <tspan x="153" y="218" font-family="NotoSerifSC-Regular, Noto Serif SC" font-weight="normal" fill="#000000">@</tspan>
                <tspan x="163.812" y="218" fill="#861094">api-market </tspan>
                <tspan x="233.88" y="218" font-family="NotoSerifSC-Regular, Noto Serif SC" font-weight="normal" fill="#000000">intergration User login oauth API</tspan>
                <tspan x="153" y="235" font-family="NotoSerifSC-Regular, Noto Serif SC" font-weight="normal" fill="#000000"></tspan>
                <tspan x="153" y="252" font-family="NotoSerifSC-Regular, Noto Serif SC" font-weight="normal" fill="#000000">Here is current $</tspan>
                <tspan x="250.188" y="252" fill="#861094">language</tspan>
                <tspan x="305.4" y="252" font-family="NotoSerifSC-Regular, Noto Serif SC" font-weight="normal" fill="#000000"> code:</tspan>
                <tspan x="153" y="269" font-family="NotoSerifSC-Regular, Noto Serif SC" font-weight="normal" fill="#000000"></tspan>
                <tspan x="153" y="286" fill="#0032B3">/file</tspan>
                <tspan x="177.192" y="286" font-family="NotoSerifSC-Regular, Noto Serif SC" font-weight="normal" fill="#000000">:</tspan>
                <tspan x="181.104" y="286" fill="#087D18">src/main/kotlin/com/phodal/blog/controller/UserController.kt</tspan>
                <tspan x="561.624" y="286" fill="#000000"></tspan>
                <tspan x="153" y="303" font-family="NotoSerifSC-Regular, Noto Serif SC" font-weight="normal" fill="#000000"></tspan>
            </text>
            <rect id="Rectangle" fill="#DA4167" x="137" y="20" width="5" height="57"></rect>
            <rect id="Rectangle" fill="#DA4167" x="137" y="88" width="5" height="57"></rect>
            <text id="Behavior" font-family="NotoSerifSC-Bold, Noto Serif SC" font-size="18" font-weight="bold" fill="#DA4167">
                <tspan x="0" y="56">Behavior</tspan>
            </text>
            <text id="IDE-Abstract" font-family="NotoSerifSC-Bold, Noto Serif SC" font-size="18" font-weight="bold" fill="#DA4167">
                <tspan x="1" y="124">IDE Abstract</tspan>
            </text>
            <text id="AI-Agents" font-family="NotoSerifSC-Bold, Noto Serif SC" font-size="18" font-weight="bold" fill="#861094">
                <tspan x="1" y="222">AI Agents</tspan>
            </text>
            <text id="Command" font-family="NotoSerifSC-Bold, Noto Serif SC" font-size="18" font-weight="bold" fill="#0032B3">
                <tspan x="0" y="290">Command</tspan>
            </text>
            <text id="Variable" font-family="NotoSerifSC-Bold, Noto Serif SC" font-size="18" font-weight="bold" fill="#861094">
                <tspan x="601" y="240">Variable</tspan>
            </text>
            <path id="Line" d="M129.373886,209.724537 L129.806614,209.975029 L137.750454,214.573444 L138.519749,215.018762 L137.739694,215.444953 L129.684752,219.845852 L129.245972,220.085584 L128.766507,219.208023 L129.205288,218.968291 L135.585,215.482 L129.505998,215.40752 L96.4938276,214.999962 L95.9938657,214.99379 L96.0062105,213.993866 L96.5061724,214.000038 L129.518343,214.407596 L135.597,214.482 L129.305631,210.840486 L128.872903,210.589994 L129.373886,209.724537 Z" fill="#861094" fill-rule="nonzero"></path>
            <path id="Line" d="M134.123886,276.974537 L134.556614,277.225029 L142.500454,281.823444 L143.269749,282.268762 L142.489694,282.694953 L134.434752,287.095852 L133.995972,287.335584 L133.516507,286.458023 L133.955288,286.218291 L140.335,282.732 L134.255998,282.65752 L101.243828,282.249962 L100.743866,282.24379 L100.75621,281.243866 L101.256172,281.250038 L134.268343,281.657596 L140.347,281.732 L134.055631,278.090486 L133.622903,277.839994 L134.123886,276.974537 Z" fill="#0032B3" fill-rule="nonzero"></path>
            <path id="Line" d="M593.98665,231.986997 L594.013003,232.98665 L593.513176,232.999826 L316.487237,240.302795 L310.42,240.462 L316.849544,243.858694 L317.291641,244.092255 L316.824518,244.976448 L316.382422,244.742887 L308.266612,240.455273 L307.480663,240.040053 L308.243644,239.584 L316.122278,234.87474 L316.551454,234.61821 L317.064514,235.476563 L316.635337,235.733093 L310.396,239.462 L316.460884,239.303142 L593.486824,232.000174 L593.98665,231.986997 Z" fill="#861094" fill-rule="nonzero"></path>
        </g>
    </g>
</svg>